<svg xmlns="http://www.w3.org/2000/svg" width="32" height="32" viewBox="0 0 8.467 8.467" id="location"><g transform="translate(-68.781 -67.778)"><path fill="#0087d1" style="line-height:normal;font-variant-ligatures:normal;font-variant-position:normal;font-variant-caps:normal;font-variant-numeric:normal;font-variant-alternates:normal;font-feature-settings:normal;text-indent:0;text-align:start;text-decoration-line:none;text-decoration-style:solid;text-decoration-color:#000;text-transform:none;text-orientation:mixed;shape-padding:0;isolation:auto;mix-blend-mode:normal" d="m 73.015696,68.351383 c -1.40926,1.06e-4 -2.558393,1.147686 -2.558499,2.556949 -3.5e-5,0.862984 0.499623,1.481387 0.74414,1.970424 a 0.26460979,0.26460979 0 0 0 0.0098,0.01757 l 1.5875,2.646868 a 0.26460979,0.26460979 0 0 0 0.453202,0 l 1.588019,-2.646868 a 0.26460979,0.26460979 0 0 0 0.0098,-0.01757 c 0.24792,-0.495837 0.721095,-1.125781 0.722437,-1.970424 -1.06e-4,-1.409263 -1.14717,-2.556843 -2.556433,-2.556949 z" color="#000" font-family="sans-serif" font-weight="400" overflow="visible" paint-order="markers fill stroke"></path><path fill="#c8d4dd" style="line-height:normal;font-variant-ligatures:normal;font-variant-position:normal;font-variant-caps:normal;font-variant-numeric:normal;font-variant-alternates:normal;font-feature-settings:normal;text-indent:0;text-align:start;text-decoration-line:none;text-decoration-style:solid;text-decoration-color:#000;text-transform:none;text-orientation:mixed;shape-padding:0;isolation:auto;mix-blend-mode:normal" d="m 73.015625,69.576172 c -0.732938,0 -1.333984,0.599093 -1.333984,1.332031 -10e-7,0.732939 0.601045,1.332032 1.333984,1.332031 0.732938,0 1.332032,-0.599092 1.332031,-1.332031 0,-0.732938 -0.599093,-1.332031 -1.332031,-1.332031 z m 0,0.529297 c 0.446955,0 0.802734,0.355779 0.802734,0.802734 10e-7,0.446956 -0.355778,0.804687 -0.802734,0.804688 -0.446956,0 -0.804688,-0.357732 -0.804687,-0.804688 0,-0.446955 0.357731,-0.802734 0.804687,-0.802734 z" color="#000" font-family="sans-serif" font-weight="400" overflow="visible" paint-order="markers fill stroke"></path><path fill="#0178be" style="line-height:normal;font-variant-ligatures:normal;font-variant-position:normal;font-variant-caps:normal;font-variant-numeric:normal;font-variant-alternates:normal;font-feature-settings:normal;text-indent:0;text-align:start;text-decoration-line:none;text-decoration-style:solid;text-decoration-color:#000;text-transform:none;text-orientation:mixed;shape-padding:0;isolation:auto;mix-blend-mode:normal" d="m 73.024999,68.35345 v 7.317382 a 0.26460979,0.26460979 0 0 0 0.226859,-0.12764 l 1.588019,-2.646868 a 0.26460979,0.26460979 0 0 0 0.0098,-0.01757 c 0.24792,-0.495837 0.721095,-1.125781 0.722437,-1.970424 -1.06e-4,-1.405953 -1.14241,-2.549403 -2.547131,-2.554882 z" color="#000" font-family="sans-serif" font-weight="400" overflow="visible" paint-order="markers fill stroke"></path><path fill="#aebdc0" style="line-height:normal;font-variant-ligatures:normal;font-variant-position:normal;font-variant-caps:normal;font-variant-numeric:normal;font-variant-alternates:normal;font-feature-settings:normal;text-indent:0;text-align:start;text-decoration-line:none;text-decoration-style:solid;text-decoration-color:#000;text-transform:none;text-orientation:mixed;shape-padding:0;isolation:auto;mix-blend-mode:normal" d="m 73.024999,69.578182 v 0.530717 c 0.441846,0.0057 0.793234,0.356103 0.793234,0.799433 0,0.443334 -0.351385,0.795248 -0.793234,0.800984 v 0.528651 c 0.728419,-0.0054 1.322401,-0.600004 1.322401,-1.329635 0,-0.72963 -0.593982,-1.324779 -1.322401,-1.33015 z" color="#000" font-family="sans-serif" font-weight="400" overflow="visible" paint-order="markers fill stroke"></path></g></svg>